<svg width="88" height="79" viewBox="0 0 88 79" fill="none" xmlns="http://www.w3.org/2000/svg">
<path d="M49.498 63.6489C49.8528 63.621 50.0637 63.6362 50.1865 63.6811C50.2436 63.702 50.2752 63.727 50.2949 63.7524C50.3151 63.7783 50.3316 63.816 50.3398 63.8745C50.3575 63.9999 50.3339 64.18 50.2861 64.4457C50.1927 64.9649 50.0232 65.7312 50.0488 66.7719C50.0978 68.7653 49.2753 70.1682 47.9121 71.0912C46.54 72.0203 44.6094 72.4691 42.4453 72.5161C40.2813 72.563 38.3307 72.1983 36.9141 71.3295C35.5064 70.4662 34.6155 69.0995 34.5664 67.1059C34.5408 66.066 34.3341 65.2901 34.2148 64.7534C34.1539 64.479 34.1202 64.285 34.1318 64.145C34.1374 64.0788 34.1528 64.0336 34.1738 64.0004C34.1942 63.9684 34.2255 63.9378 34.2803 63.9116C34.3984 63.8551 34.6058 63.8239 34.96 63.8334C35.3087 63.8428 35.7779 63.8908 36.4033 63.9721C37.6553 64.1349 39.5059 64.4296 42.2305 64.8159L42.2529 64.8198L42.2754 64.8159C44.9729 64.3872 46.8238 64.0462 48.0605 63.8442C48.6819 63.7427 49.1489 63.6763 49.498 63.6489Z" fill="#D9D9D9" fill-opacity="0.6" stroke="black" stroke-width="0.3"/>
<path d="M50.65 63.8764C50.65 64.4219 46.9275 65.1605 42.3356 65.1605C37.7437 65.1605 34.0212 64.4219 34.0212 63.8764C34.0212 63.3309 37.7437 62.8886 42.3356 62.8886C46.9275 62.8886 50.65 63.3309 50.65 63.8764Z" fill="#959191"/>
<path d="M42.3357 63.039C44.6276 63.039 46.7 63.1492 48.197 63.3271C48.9465 63.4161 49.5462 63.5216 49.9558 63.6367C50.1618 63.6945 50.3114 63.7517 50.406 63.8066C50.4533 63.834 50.4795 63.8573 50.4929 63.873C50.4947 63.8751 50.4957 63.8773 50.4968 63.8788C50.4953 63.8811 50.4926 63.8834 50.49 63.8867C50.475 63.9053 50.447 63.9315 50.3992 63.9628C50.3034 64.0254 50.1527 64.0946 49.947 64.166C49.5377 64.3079 48.9383 64.4494 48.1902 64.5751C46.6948 64.8264 44.6244 65.0107 42.3357 65.0107C40.047 65.0107 37.9766 64.8264 36.4812 64.5751C35.7327 64.4493 35.1328 64.308 34.7234 64.166C34.5178 64.0946 34.3679 64.0254 34.2722 63.9628C34.2243 63.9315 34.1963 63.9053 34.1814 63.8867C34.1783 63.8828 34.1752 63.8803 34.1736 63.8779C34.1747 63.8764 34.1767 63.875 34.1785 63.873C34.1919 63.8573 34.2182 63.834 34.2654 63.8066C34.36 63.7517 34.5097 63.6945 34.7156 63.6367C35.1252 63.5216 35.725 63.4161 36.4744 63.3271C37.9714 63.1492 40.0438 63.039 42.3357 63.039Z" stroke="black" stroke-opacity="0.23" stroke-width="0.3"/>
<g filter="url(#filter0_d_48_26)">
<path d="M55.2162 67.4061C55.2162 68.7021 50.9819 69.157 50.9819 69.9405C45.5022 70.7852 53.6126 68.7021 53.6126 67.4061C53.6126 66.1102 48.9185 64.6841 50.9819 64.6841C53.2236 65.1534 55.2162 66.1102 55.2162 67.4061Z" fill="#959191"/>
<path d="M50.9971 64.5337L51.0127 64.5376C52.1422 64.7741 53.218 65.1348 54.0156 65.606C54.8053 66.0725 55.366 66.6746 55.3662 67.4058C55.3662 67.8174 55.0326 68.1283 54.6318 68.3677C54.2206 68.6134 53.6781 68.8207 53.1494 69.0074C52.6135 69.1965 52.0935 69.3635 51.7031 69.5337C51.5083 69.6187 51.3566 69.6996 51.2559 69.7779C51.1512 69.8592 51.1321 69.9134 51.1318 69.94V70.0689L51.0049 70.0884C50.3194 70.1941 49.8415 70.2551 49.5322 70.2769C49.379 70.2877 49.2592 70.2899 49.1738 70.2808C49.1325 70.2764 49.0873 70.2683 49.0479 70.2505C49.0102 70.2335 48.9413 70.1893 48.9316 70.0992C48.9235 70.0217 48.9675 69.9655 48.9883 69.9419C49.0139 69.9129 49.0461 69.887 49.0781 69.8648C49.1432 69.8195 49.2337 69.7698 49.3389 69.7173C49.5511 69.6115 49.8489 69.4823 50.1836 69.3384C50.8574 69.0488 51.6921 68.6958 52.3594 68.3355C52.6935 68.155 52.9786 67.9764 53.1777 67.8072C53.2771 67.7227 53.3507 67.6446 53.3984 67.5738C53.4463 67.5027 53.4629 67.4472 53.4629 67.4058C53.4628 67.2896 53.4095 67.1574 53.2959 67.0083C53.1827 66.8598 53.0182 66.7063 52.8193 66.5523C52.4215 66.2441 51.9084 65.95 51.4492 65.69C51.2216 65.561 51.006 65.4395 50.8291 65.3316C50.656 65.2259 50.5048 65.124 50.415 65.0318C50.3731 64.9887 50.3209 64.925 50.3096 64.8452C50.3032 64.8 50.3111 64.7522 50.3359 64.7085C50.3593 64.6674 50.3927 64.639 50.4248 64.6197C50.4861 64.5828 50.5668 64.5638 50.6514 64.5523C50.7395 64.5403 50.8493 64.5337 50.9814 64.5337H50.9971Z" stroke="black" stroke-width="0.3"/>
</g>
<path d="M1.41602 68.671C1.41602 68.671 5.2768 71.6104 13.9636 71.6104C22.6503 71.6104 43.1821 72.4432 43.1821 72.4432L60.7756 70.9735C60.7756 70.9735 69.2211 73.9129 75.7362 72.4432C82.2512 70.9735 86.8359 68.671 86.8359 68.671" stroke="black"/>
<g filter="url(#filter1_f_48_26)">
<ellipse cx="60.4077" cy="70.9757" rx="0.943866" ry="0.838799" fill="#FA9E1E"/>
</g>
<ellipse cx="60.4077" cy="70.9757" rx="0.943866" ry="0.838799" fill="#FA9E1E"/>
<g filter="url(#filter2_f_48_26)">
<ellipse cx="8.02297" cy="71.3942" rx="0.943866" ry="0.838799" fill="#FA9E1E"/>
</g>
<ellipse cx="8.02297" cy="71.3942" rx="0.943866" ry="0.838799" fill="#FA9E1E"/>
<g filter="url(#filter3_f_48_26)">
<ellipse cx="78.3408" cy="72.2335" rx="0.943866" ry="0.838799" fill="#FA9E1E"/>
</g>
<ellipse cx="78.3408" cy="72.2335" rx="0.943866" ry="0.838799" fill="#FA9E1E"/>
<ellipse cx="23.1248" cy="71.3943" rx="0.943866" ry="0.838799" fill="#FA9E1E"/>
<g filter="url(#filter4_f_48_26)">
<ellipse cx="23.1248" cy="71.3943" rx="0.943866" ry="0.838799" fill="#FA9E1E"/>
</g>
<line x1="62.7673" y1="16.7921" x2="67.0147" y2="16.7921" stroke="white"/>
<path d="M37.1787 71.1611H47.2822L45.0721 72.3464H39.1784L37.1787 71.1611Z" fill="#959191"/>
<path d="M38.0718 71.5564H45.8599L44.1563 72.1491H39.6132L38.0718 71.5564Z" fill="#B19778"/>
<path d="M49.598 63.9749C49.598 64.3568 46.9782 64.7651 42.9676 64.7651C38.957 64.7651 35.0742 64.3568 35.0742 63.9749C35.0742 63.593 38.3255 63.2835 42.3361 63.2835C46.3468 63.2835 49.598 63.593 49.598 63.9749Z" fill="#292420"/>
<path d="M42.3359 63.7835C44.3306 63.7835 46.1299 63.8605 47.4238 63.9837C47.5313 63.9939 47.6348 64.0051 47.7344 64.0159C47.7305 64.0164 47.7266 64.0173 47.7227 64.0178C46.5937 64.1641 44.9586 64.2649 42.9678 64.2649C40.9773 64.2649 39.0206 64.1638 37.5674 64.0159C37.4632 64.0053 37.362 63.9927 37.2637 63.9817C38.5565 63.8593 40.3491 63.7835 42.3359 63.7835Z" stroke="black" stroke-opacity="0.27"/>
<path d="M39.4887 60.8258C38.2075 59.6386 43.9848 59.3236 44.9983 59.8006C47.7475 59.8006 43.3978 59.0525 41.9287 60.8258C41.0243 61.9174 43.3653 61.7975 43.5002 62.5687C43.635 63.3399 40.77 62.0131 39.4887 60.8258Z" fill="#D9D9D9" fill-opacity="0.34"/>
<path d="M49.2142 67.7999C49.2142 70.5729 46.773 72.0772 43.7617 72.0772C40.7504 72.0772 43.7617 73.007 44.255 69.097C44.255 66.324 44.255 66.1807 44.255 66.1807C51.6472 63.6841 49.2142 65.0269 49.2142 67.7999Z" fill="#B19778"/>
<rect x="0.5" y="40.0204" width="85.8357" height="2.3552" fill="#4A3B2C" stroke="black"/>
<path d="M85.1416 73.1523L84.0928 73.8301H2.29785L1.43945 73.1523H85.1416Z" fill="#58462F" stroke="black"/>
<rect x="79.7849" y="14.4371" width="4.19126" height="24.5834" fill="#C78317" fill-opacity="0.48" stroke="black"/>
<rect x="33.5354" y="17.3725" width="7.96673" height="21.6476" fill="#A2968B" stroke="black"/>
<rect x="62.7954" y="14.4371" width="4.19126" height="24.5834" fill="#847F7F" fill-opacity="0.34" stroke="black"/>
<rect x="16.074" y="16.1149" width="4.19126" height="22.9058" fill="#A2968B" stroke="black"/>
<path d="M16.0457 36.1654H20.2931V39.1012H16.0457V36.1654Z" fill="#B19778"/>
<rect x="2.85986" y="16.1149" width="4.19126" height="22.9058" fill="#CCB29A" fill-opacity="0.61" stroke="black"/>
<rect x="8.05127" y="14.4371" width="7.02286" height="24.5834" fill="#ADA59F" stroke="black"/>
<path d="M11.7986 14.7752H15.1021V39.1004H12.6566V35.8021V14.7752H11.7986Z" fill="#B19778"/>
<path d="M4.71952 37.8431L7.07919 36.3752V39.311H2.83179L4.71952 37.8431Z" fill="#B19778"/>
<path d="M61.8643 17.3775L53.8717 39.2706L47.4214 38.9702L55.9384 15.8095L61.8643 17.3775Z" fill="#CCB29A" stroke="black"/>
<line y1="-0.5" x2="6.56967" y2="-0.5" transform="matrix(0.978323 0.207083 -0.258882 0.965909 54.3625 19.5477)" stroke="black"/>
<path d="M48.6521 35.7458H55.2162L54.0364 39.101H47.1934L48.6521 35.7458Z" fill="#B19778"/>
<rect x="42.0303" y="14.4371" width="4.19126" height="24.5834" fill="#C78317" fill-opacity="0.48" stroke="black"/>
<rect x="70.3462" y="17.3725" width="6.55093" height="21.6476" fill="#9A9494" stroke="black"/>
<line x1="70.3181" y1="19.728" x2="76.9252" y2="19.728" stroke="white"/>
<g filter="url(#filter5_f_48_26)">
<ellipse cx="42.4741" cy="-1.16096" rx="0.943866" ry="0.838799" fill="#FA9E1E"/>
</g>
<g filter="url(#filter6_f_48_26)">
<ellipse cx="77.3972" cy="3.8713" rx="0.943866" ry="0.838799" fill="#FA9E1E"/>
</g>
<path d="M1.41602 0.309459C1.41602 0.309459 5.2768 3.24893 13.9636 3.24893C22.6503 3.24893 42.9195 -1.5802 42.9195 -1.5802L60.7756 2.61196C60.7756 2.61196 69.2211 5.55143 75.7362 4.08169C82.2512 2.61196 86.8359 0.309459 86.8359 0.309459" stroke="black"/>
<g filter="url(#filter7_f_48_26)">
<ellipse cx="57.5757" cy="2.19341" rx="0.943866" ry="0.838799" fill="#FA9E1E"/>
</g>
<ellipse cx="57.5757" cy="2.19341" rx="0.943866" ry="0.838799" fill="#FA9E1E"/>
<ellipse cx="23.1248" cy="2.19341" rx="0.943866" ry="0.838799" fill="#FA9E1E"/>
<g filter="url(#filter8_f_48_26)">
<ellipse cx="23.1248" cy="2.19341" rx="0.943866" ry="0.838799" fill="#FA9E1E"/>
</g>
<rect x="70.3181" y="36.584" width="6.60706" height="2.9358" fill="#FA9E1E" fill-opacity="0.24"/>
<rect x="33.5073" y="36.1654" width="8.02286" height="2.9358" fill="#B19778"/>
<path d="M39.6421 17.2921H41.5298V36.1651H39.6421L40.35 32.3905L39.6421 17.2921Z" fill="#B19778"/>
<path d="M0.708008 39.1008C0.708008 39.1008 10.8986 42.6659 19.5853 42.6659C28.2721 42.6659 37.2828 40.1495 37.2828 40.1495C37.2828 40.1495 56.8681 42.776 63.2392 42.6659C69.6103 42.5559 77.4891 41.6192 84.0042 40.1494C90.5193 38.6797 84.7121 39.1008 84.7121 39.1008" stroke="black"/>
<ellipse cx="8.02297" cy="41.1978" rx="0.943866" ry="0.838799" fill="#FA9E1E"/>
<ellipse cx="32.0916" cy="41.1978" rx="0.943866" ry="0.838799" fill="#FA9E1E"/>
<ellipse cx="75.5093" cy="41.6174" rx="0.943866" ry="0.838799" fill="#FA9E1E"/>
<ellipse cx="56.6321" cy="42.0365" rx="0.943866" ry="0.838799" fill="#FA9E1E"/>
<g filter="url(#filter9_f_48_26)">
<ellipse cx="8.02297" cy="41.1978" rx="0.943866" ry="0.838799" fill="#FA9E1E"/>
</g>
<g filter="url(#filter10_f_48_26)">
<ellipse cx="75.5093" cy="41.6174" rx="0.943866" ry="0.838799" fill="#FA9E1E"/>
</g>
<g filter="url(#filter11_f_48_26)">
<ellipse cx="56.6321" cy="42.0365" rx="0.943866" ry="0.838799" fill="#FA9E1E"/>
</g>
<g filter="url(#filter12_f_48_26)">
<ellipse cx="32.0916" cy="41.1978" rx="0.943866" ry="0.838799" fill="#FA9E1E"/>
</g>
<g filter="url(#filter13_f_48_26)">
<ellipse cx="32.0916" cy="41.1978" rx="0.943866" ry="0.838799" fill="#FA9E1E"/>
</g>
<g filter="url(#filter14_f_48_26)">
<ellipse cx="56.6321" cy="42.0365" rx="0.943866" ry="0.838799" fill="#FA9E1E"/>
</g>
<g filter="url(#filter15_f_48_26)">
<ellipse cx="75.5093" cy="41.6174" rx="0.943866" ry="0.838799" fill="#FA9E1E"/>
</g>
<line x1="2.83179" y1="18.0508" x2="7.07919" y2="18.0508" stroke="white"/>
<path d="M34.4512 22.3249H36.3389V34.9068H34.4512V22.3249Z" fill="#D9D9D9"/>
<path d="M33.5073 20.0178L37.5188 20.6469L41.5302 20.0178" stroke="white"/>
<ellipse cx="77.3972" cy="3.8713" rx="0.943866" ry="0.838799" fill="#FA9E1E"/>
<g filter="url(#filter16_f_48_26)">
<ellipse cx="7.55129" cy="2.61309" rx="0.943866" ry="0.838799" fill="#FA9E1E"/>
</g>
<ellipse cx="7.55129" cy="2.61309" rx="0.943866" ry="0.838799" fill="#FA9E1E"/>
<path d="M50.4971 69.7171L53.5888 68.3328L54.6959 67.9421" stroke="#B19778"/>
<defs>
<filter id="filter0_d_48_26" x="44.781" y="64.3841" width="14.7351" height="14.0522" filterUnits="userSpaceOnUse" color-interpolation-filters="sRGB">
<feFlood flood-opacity="0" result="BackgroundImageFix"/>
<feColorMatrix in="SourceAlpha" type="matrix" values="0 0 0 0 0 0 0 0 0 0 0 0 0 0 0 0 0 0 127 0" result="hardAlpha"/>
<feOffset dy="4"/>
<feGaussianBlur stdDeviation="2"/>
<feComposite in2="hardAlpha" operator="out"/>
<feColorMatrix type="matrix" values="0 0 0 0 0 0 0 0 0 0 0 0 0 0 0 0 0 0 0.25 0"/>
<feBlend mode="normal" in2="BackgroundImageFix" result="effect1_dropShadow_48_26"/>
<feBlend mode="normal" in="SourceGraphic" in2="effect1_dropShadow_48_26" result="shape"/>
</filter>
<filter id="filter1_f_48_26" x="55.4639" y="66.1369" width="9.8877" height="9.6776" filterUnits="userSpaceOnUse" color-interpolation-filters="sRGB">
<feFlood flood-opacity="0" result="BackgroundImageFix"/>
<feBlend mode="normal" in="SourceGraphic" in2="BackgroundImageFix" result="shape"/>
<feGaussianBlur stdDeviation="2" result="effect1_foregroundBlur_48_26"/>
</filter>
<filter id="filter2_f_48_26" x="3.0791" y="66.5554" width="9.8877" height="9.6776" filterUnits="userSpaceOnUse" color-interpolation-filters="sRGB">
<feFlood flood-opacity="0" result="BackgroundImageFix"/>
<feBlend mode="normal" in="SourceGraphic" in2="BackgroundImageFix" result="shape"/>
<feGaussianBlur stdDeviation="2" result="effect1_foregroundBlur_48_26"/>
</filter>
<filter id="filter3_f_48_26" x="73.397" y="67.3947" width="9.8877" height="9.6776" filterUnits="userSpaceOnUse" color-interpolation-filters="sRGB">
<feFlood flood-opacity="0" result="BackgroundImageFix"/>
<feBlend mode="normal" in="SourceGraphic" in2="BackgroundImageFix" result="shape"/>
<feGaussianBlur stdDeviation="2" result="effect1_foregroundBlur_48_26"/>
</filter>
<filter id="filter4_f_48_26" x="18.1809" y="66.5555" width="9.8877" height="9.6776" filterUnits="userSpaceOnUse" color-interpolation-filters="sRGB">
<feFlood flood-opacity="0" result="BackgroundImageFix"/>
<feBlend mode="normal" in="SourceGraphic" in2="BackgroundImageFix" result="shape"/>
<feGaussianBlur stdDeviation="2" result="effect1_foregroundBlur_48_26"/>
</filter>
<filter id="filter5_f_48_26" x="37.5303" y="-5.99976" width="9.8877" height="9.67761" filterUnits="userSpaceOnUse" color-interpolation-filters="sRGB">
<feFlood flood-opacity="0" result="BackgroundImageFix"/>
<feBlend mode="normal" in="SourceGraphic" in2="BackgroundImageFix" result="shape"/>
<feGaussianBlur stdDeviation="2" result="effect1_foregroundBlur_48_26"/>
</filter>
<filter id="filter6_f_48_26" x="72.4534" y="-0.967499" width="9.8877" height="9.67761" filterUnits="userSpaceOnUse" color-interpolation-filters="sRGB">
<feFlood flood-opacity="0" result="BackgroundImageFix"/>
<feBlend mode="normal" in="SourceGraphic" in2="BackgroundImageFix" result="shape"/>
<feGaussianBlur stdDeviation="2" result="effect1_foregroundBlur_48_26"/>
</filter>
<filter id="filter7_f_48_26" x="52.6318" y="-2.64539" width="9.8877" height="9.67761" filterUnits="userSpaceOnUse" color-interpolation-filters="sRGB">
<feFlood flood-opacity="0" result="BackgroundImageFix"/>
<feBlend mode="normal" in="SourceGraphic" in2="BackgroundImageFix" result="shape"/>
<feGaussianBlur stdDeviation="2" result="effect1_foregroundBlur_48_26"/>
</filter>
<filter id="filter8_f_48_26" x="18.1809" y="-2.64539" width="9.8877" height="9.67761" filterUnits="userSpaceOnUse" color-interpolation-filters="sRGB">
<feFlood flood-opacity="0" result="BackgroundImageFix"/>
<feBlend mode="normal" in="SourceGraphic" in2="BackgroundImageFix" result="shape"/>
<feGaussianBlur stdDeviation="2" result="effect1_foregroundBlur_48_26"/>
</filter>
<filter id="filter9_f_48_26" x="3.0791" y="36.359" width="9.8877" height="9.6776" filterUnits="userSpaceOnUse" color-interpolation-filters="sRGB">
<feFlood flood-opacity="0" result="BackgroundImageFix"/>
<feBlend mode="normal" in="SourceGraphic" in2="BackgroundImageFix" result="shape"/>
<feGaussianBlur stdDeviation="2" result="effect1_foregroundBlur_48_26"/>
</filter>
<filter id="filter10_f_48_26" x="70.5654" y="36.7786" width="9.8877" height="9.6776" filterUnits="userSpaceOnUse" color-interpolation-filters="sRGB">
<feFlood flood-opacity="0" result="BackgroundImageFix"/>
<feBlend mode="normal" in="SourceGraphic" in2="BackgroundImageFix" result="shape"/>
<feGaussianBlur stdDeviation="2" result="effect1_foregroundBlur_48_26"/>
</filter>
<filter id="filter11_f_48_26" x="51.6882" y="37.1977" width="9.8877" height="9.6776" filterUnits="userSpaceOnUse" color-interpolation-filters="sRGB">
<feFlood flood-opacity="0" result="BackgroundImageFix"/>
<feBlend mode="normal" in="SourceGraphic" in2="BackgroundImageFix" result="shape"/>
<feGaussianBlur stdDeviation="2" result="effect1_foregroundBlur_48_26"/>
</filter>
<filter id="filter12_f_48_26" x="27.1477" y="36.359" width="9.8877" height="9.6776" filterUnits="userSpaceOnUse" color-interpolation-filters="sRGB">
<feFlood flood-opacity="0" result="BackgroundImageFix"/>
<feBlend mode="normal" in="SourceGraphic" in2="BackgroundImageFix" result="shape"/>
<feGaussianBlur stdDeviation="2" result="effect1_foregroundBlur_48_26"/>
</filter>
<filter id="filter13_f_48_26" x="27.1477" y="36.359" width="9.8877" height="9.6776" filterUnits="userSpaceOnUse" color-interpolation-filters="sRGB">
<feFlood flood-opacity="0" result="BackgroundImageFix"/>
<feBlend mode="normal" in="SourceGraphic" in2="BackgroundImageFix" result="shape"/>
<feGaussianBlur stdDeviation="2" result="effect1_foregroundBlur_48_26"/>
</filter>
<filter id="filter14_f_48_26" x="51.6882" y="37.1977" width="9.8877" height="9.6776" filterUnits="userSpaceOnUse" color-interpolation-filters="sRGB">
<feFlood flood-opacity="0" result="BackgroundImageFix"/>
<feBlend mode="normal" in="SourceGraphic" in2="BackgroundImageFix" result="shape"/>
<feGaussianBlur stdDeviation="2" result="effect1_foregroundBlur_48_26"/>
</filter>
<filter id="filter15_f_48_26" x="70.5654" y="36.7786" width="9.8877" height="9.6776" filterUnits="userSpaceOnUse" color-interpolation-filters="sRGB">
<feFlood flood-opacity="0" result="BackgroundImageFix"/>
<feBlend mode="normal" in="SourceGraphic" in2="BackgroundImageFix" result="shape"/>
<feGaussianBlur stdDeviation="2" result="effect1_foregroundBlur_48_26"/>
</filter>
<filter id="filter16_f_48_26" x="2.60742" y="-2.22571" width="9.8877" height="9.67761" filterUnits="userSpaceOnUse" color-interpolation-filters="sRGB">
<feFlood flood-opacity="0" result="BackgroundImageFix"/>
<feBlend mode="normal" in="SourceGraphic" in2="BackgroundImageFix" result="shape"/>
<feGaussianBlur stdDeviation="2" result="effect1_foregroundBlur_48_26"/>
</filter>
</defs>
</svg>
